<svg xmlns="http://www.w3.org/2000/svg" width="600" height="500" viewBox="0 0 600 500">
<rect width="100%" height="100%" fill="#fff4e8"/>
<text x="20" y="30" font-size="24" font-family="Arial" font-weight="bold" fill="#333">6 · Celebration Screen</text>
<rect x="220" y="100" width="240" height="280" rx="30" fill="#fff" stroke="#6cc07d" stroke-width="4" opacity="0.85"/>
<circle cx="248.9" cy="130.0" r="10" fill="#ffea00" opacity="0.9"/>
<circle cx="312.2" cy="133.5" r="10" fill="#ffea00" opacity="0.9"/>
<circle cx="360.6" cy="128.5" r="10" fill="#ffea00" opacity="0.9"/>
<circle cx="407.2" cy="130.7" r="10" fill="#ffea00" opacity="0.9"/>
<circle cx="254.3" cy="199.1" r="10" fill="#ffea00" opacity="0.9"/>
<circle cx="302.0" cy="203.4" r="10" fill="#ffea00" opacity="0.9"/>
<circle cx="367.9" cy="203.8" r="10" fill="#ffea00" opacity="0.9"/>
<circle cx="418.2" cy="196.8" r="10" fill="#ffea00" opacity="0.9"/>
<circle cx="252.9" cy="274.9" r="10" fill="#ffea00" opacity="0.9"/>
<circle cx="298.2" cy="268.1" r="10" fill="#ffea00" opacity="0.9"/>
<circle cx="355.4" cy="277.9" r="10" fill="#ffea00" opacity="0.9"/>
<circle cx="413.2" cy="275.2" r="10" fill="#ffea00" opacity="0.9"/>
<rect x="120" y="410" width="400" height="60" rx="15" fill="#6cc07d"/>
<text x="320" y="450" font-size="28" font-family="Arial" font-weight="bold" text-anchor="middle" fill="#fff">Level Complete!</text>
<circle cx="80" cy="450" r="30" fill="#ffea00" stroke="#d19e00" stroke-width="3"/>
<text x="80" y="455" font-size="18" font-family="Arial" text-anchor="middle" fill="#333">Fact</text>
<rect x="0" y="430" width="600" height="70" fill="#ffffffaa"/>
<text x="20" y="455" font-size="18" font-family="Arial" fill="#333">Jar fills with fireflies; Level Complete banner &</text>
<text x="20" y="477" font-size="18" font-family="Arial" fill="#333">sticker reward appear.</text>
</svg>