<svg xmlns="http://www.w3.org/2000/svg" width="600" height="500" viewBox="0 0 600 500">
<rect width="100%" height="100%" fill="#fff9e3"/>
<text x="20" y="30" font-size="24" font-family="Arial" font-weight="bold" fill="#333">3 · Watch Phase</text>
<circle cx="100" cy="100.0" r="18.0" fill="#f1f1f1" stroke="#999" stroke-width="1"/>
<circle cx="150" cy="100.0" r="18.0" fill="#f1f1f1" stroke="#999" stroke-width="1"/>
<circle cx="200" cy="100.0" r="18.0" fill="#f1f1f1" stroke="#999" stroke-width="1"/>
<circle cx="250" cy="100.0" r="18.0" fill="#f1f1f1" stroke="#999" stroke-width="1"/>
<circle cx="125" cy="143.75" r="18.0" fill="#f1f1f1" stroke="#999" stroke-width="1"/>
<circle cx="175" cy="143.75" r="18.0" fill="#f1f1f1" stroke="#999" stroke-width="1"/>
<circle cx="225" cy="143.75" r="18.0" fill="#f1f1f1" stroke="#999" stroke-width="1"/>
<circle cx="275" cy="143.75" r="18.0" fill="#f1f1f1" stroke="#999" stroke-width="1"/>
<circle cx="100" cy="187.5" r="18.0" fill="#f1f1f1" stroke="#999" stroke-width="1"/>
<circle cx="150" cy="187.5" r="18.0" fill="#f1f1f1" stroke="#999" stroke-width="1"/>
<circle cx="200" cy="187.5" r="18.0" fill="#f1f1f1" stroke="#999" stroke-width="1"/>
<circle cx="250" cy="187.5" r="18.0" fill="#f1f1f1" stroke="#999" stroke-width="1"/>
<circle cx="125" cy="231.25" r="18.0" fill="#f1f1f1" stroke="#999" stroke-width="1"/>
<circle cx="175" cy="231.25" r="18.0" fill="#f1f1f1" stroke="#999" stroke-width="1"/>
<circle cx="225" cy="231.25" r="18.0" fill="#f1f1f1" stroke="#999" stroke-width="1"/>
<circle cx="275" cy="231.25" r="18.0" fill="#f1f1f1" stroke="#999" stroke-width="1"/>
<polyline points="100,100.0 125,143.75 175,143.75 200,187.5 225,231.25 275,231.25" fill="none" stroke="#ffea00" stroke-width="8" stroke-linecap="round" stroke-linejoin="round" opacity="0.9"/>
<rect x="0" y="430" width="600" height="70" fill="#ffffffaa"/>
<text x="20" y="455" font-size="18" font-family="Arial" fill="#333">Player observes glowing path on 4×4 hex‑grid</text>
<text x="20" y="477" font-size="18" font-family="Arial" fill="#333">(encoding phase).</text>
</svg>