<svg xmlns="http://www.w3.org/2000/svg" width="600" height="500" viewBox="0 0 600 500">
<rect width="100%" height="100%" fill="#ffecec"/>
<text x="20" y="30" font-size="24" font-family="Arial" font-weight="bold" fill="#333">5 · Error & Retry</text>
<circle cx="100" cy="100.0" r="18.0" fill="#f1f1f1" stroke="#999" stroke-width="1"/>
<circle cx="150" cy="100.0" r="18.0" fill="#f1f1f1" stroke="#999" stroke-width="1"/>
<circle cx="200" cy="100.0" r="18.0" fill="#f1f1f1" stroke="#999" stroke-width="1"/>
<circle cx="250" cy="100.0" r="18.0" fill="#f1f1f1" stroke="#999" stroke-width="1"/>
<circle cx="125" cy="143.75" r="18.0" fill="#f1f1f1" stroke="#999" stroke-width="1"/>
<circle cx="175" cy="143.75" r="18.0" fill="#f1f1f1" stroke="#999" stroke-width="1"/>
<circle cx="225" cy="143.75" r="18.0" fill="#f1f1f1" stroke="#999" stroke-width="1"/>
<circle cx="275" cy="143.75" r="18.0" fill="#f1f1f1" stroke="#999" stroke-width="1"/>
<circle cx="100" cy="187.5" r="18.0" fill="#f1f1f1" stroke="#999" stroke-width="1"/>
<circle cx="150" cy="187.5" r="18.0" fill="#f1f1f1" stroke="#999" stroke-width="1"/>
<circle cx="200" cy="187.5" r="18.0" fill="#f1f1f1" stroke="#999" stroke-width="1"/>
<circle cx="250" cy="187.5" r="18.0" fill="#f1f1f1" stroke="#999" stroke-width="1"/>
<circle cx="125" cy="231.25" r="18.0" fill="#f1f1f1" stroke="#999" stroke-width="1"/>
<circle cx="175" cy="231.25" r="18.0" fill="#f1f1f1" stroke="#999" stroke-width="1"/>
<circle cx="225" cy="231.25" r="18.0" fill="#f1f1f1" stroke="#999" stroke-width="1"/>
<circle cx="275" cy="231.25" r="18.0" fill="#f1f1f1" stroke="#999" stroke-width="1"/>
<polyline points="100,100.0 125,143.75" fill="none" stroke="#2ca24c" stroke-width="8" stroke-linecap="round" stroke-linejoin="round"/>
<polyline points="125,143.75 100,187.5" fill="none" stroke="#d13c3c" stroke-width="8" stroke-linecap="round" stroke-linejoin="round"/>
<circle cx="520" cy="380" r="28" fill="#826a57"/>
<text x="520" y="390" font-size="20" font-family="Arial" text-anchor="middle" fill="#fff">?</text>
<rect x="0" y="430" width="600" height="70" fill="#ffffffaa"/>
<text x="20" y="455" font-size="18" font-family="Arial" fill="#333">Wrong branch glows red; owl prompts retry—shows</text>
<text x="20" y="477" font-size="18" font-family="Arial" fill="#333">forgiving feedback.</text>
</svg>