<svg xmlns="http://www.w3.org/2000/svg" width="800" height="600" viewBox="0 0 800 600">
<rect width="100%" height="100%" fill="#0d1117"/>
<text x="30" y="50" font-size="34" font-family="Courier New" fill="#00eaff" letter-spacing="2">2  COUNTDOWN</text>
<rect x="40" y="227" width="10" height="53" fill="#7f00ff" opacity="0.6"/>
<rect x="54" y="122" width="10" height="158" fill="#7f00ff" opacity="0.6"/>
<rect x="68" y="195" width="10" height="85" fill="#7f00ff" opacity="0.6"/>
<rect x="82" y="153" width="10" height="127" fill="#7f00ff" opacity="0.6"/>
<rect x="96" y="145" width="10" height="135" fill="#7f00ff" opacity="0.6"/>
<rect x="110" y="216" width="10" height="64" fill="#7f00ff" opacity="0.6"/>
<rect x="124" y="235" width="10" height="45" fill="#7f00ff" opacity="0.6"/>
<rect x="138" y="204" width="10" height="76" fill="#7f00ff" opacity="0.6"/>
<rect x="152" y="148" width="10" height="132" fill="#7f00ff" opacity="0.6"/>
<rect x="166" y="202" width="10" height="78" fill="#7f00ff" opacity="0.6"/>
<rect x="180" y="189" width="10" height="91" fill="#7f00ff" opacity="0.6"/>
<rect x="194" y="178" width="10" height="102" fill="#7f00ff" opacity="0.6"/>
<rect x="208" y="126" width="10" height="154" fill="#7f00ff" opacity="0.6"/>
<rect x="222" y="182" width="10" height="98" fill="#7f00ff" opacity="0.6"/>
<rect x="236" y="243" width="10" height="37" fill="#7f00ff" opacity="0.6"/>
<rect x="250" y="207" width="10" height="73" fill="#7f00ff" opacity="0.6"/>
<rect x="264" y="172" width="10" height="108" fill="#7f00ff" opacity="0.6"/>
<rect x="278" y="143" width="10" height="137" fill="#7f00ff" opacity="0.6"/>
<rect x="292" y="184" width="10" height="96" fill="#7f00ff" opacity="0.6"/>
<rect x="306" y="239" width="10" height="41" fill="#7f00ff" opacity="0.6"/>
<rect x="320" y="258" width="10" height="22" fill="#7f00ff" opacity="0.6"/>
<rect x="334" y="105" width="10" height="175" fill="#7f00ff" opacity="0.6"/>
<rect x="348" y="229" width="10" height="51" fill="#7f00ff" opacity="0.6"/>
<rect x="362" y="217" width="10" height="63" fill="#7f00ff" opacity="0.6"/>
<rect x="376" y="113" width="10" height="167" fill="#7f00ff" opacity="0.6"/>
<rect x="390" y="201" width="10" height="79" fill="#7f00ff" opacity="0.6"/>
<rect x="404" y="132" width="10" height="148" fill="#7f00ff" opacity="0.6"/>
<rect x="418" y="107" width="10" height="173" fill="#7f00ff" opacity="0.6"/>
<rect x="432" y="110" width="10" height="170" fill="#7f00ff" opacity="0.6"/>
<rect x="446" y="164" width="10" height="116" fill="#7f00ff" opacity="0.6"/>
<rect x="460" y="179" width="10" height="101" fill="#7f00ff" opacity="0.6"/>
<rect x="474" y="184" width="10" height="96" fill="#7f00ff" opacity="0.6"/>
<rect x="488" y="142" width="10" height="138" fill="#7f00ff" opacity="0.6"/>
<rect x="502" y="240" width="10" height="40" fill="#7f00ff" opacity="0.6"/>
<rect x="516" y="155" width="10" height="125" fill="#7f00ff" opacity="0.6"/>
<rect x="530" y="249" width="10" height="31" fill="#7f00ff" opacity="0.6"/>
<rect x="544" y="253" width="10" height="27" fill="#7f00ff" opacity="0.6"/>
<rect x="558" y="239" width="10" height="41" fill="#7f00ff" opacity="0.6"/>
<rect x="572" y="184" width="10" height="96" fill="#7f00ff" opacity="0.6"/>
<rect x="586" y="175" width="10" height="105" fill="#7f00ff" opacity="0.6"/>
<rect x="600" y="178" width="10" height="102" fill="#7f00ff" opacity="0.6"/>
<rect x="614" y="236" width="10" height="44" fill="#7f00ff" opacity="0.6"/>
<rect x="628" y="106" width="10" height="174" fill="#7f00ff" opacity="0.6"/>
<rect x="642" y="160" width="10" height="120" fill="#7f00ff" opacity="0.6"/>
<rect x="656" y="172" width="10" height="108" fill="#7f00ff" opacity="0.6"/>
<rect x="670" y="244" width="10" height="36" fill="#7f00ff" opacity="0.6"/>
<rect x="684" y="167" width="10" height="113" fill="#7f00ff" opacity="0.6"/>
<rect x="698" y="212" width="10" height="68" fill="#7f00ff" opacity="0.6"/>
<rect x="712" y="125" width="10" height="155" fill="#7f00ff" opacity="0.6"/>
<rect x="726" y="131" width="10" height="149" fill="#7f00ff" opacity="0.6"/>
<text x="400.0" y="330.0" font-size="200" font-family="Courier New" text-anchor="middle" fill="#00eaff" opacity="0.85">3</text>
<rect x="0" y="530" width="800" height="70" fill="#161b22"/>
<text x="30" y="555" font-size="20" font-family="Courier New" fill="#e6e6e6">Neon 3‑2‑1 countdown pulses; ambient equalizer bars animate.</text>
</svg>