<svg xmlns="http://www.w3.org/2000/svg" width="800" height="600" viewBox="0 0 800 600">
<rect width="100%" height="100%" fill="#0d1117"/>
<text x="30" y="50" font-size="34" font-family="Courier New" fill="#00eaff" letter-spacing="2">4  RECALL PHASE</text>
<rect x="40" y="80" width="38" height="38" fill="none" stroke="#444" stroke-width="2"/>
<rect x="80" y="80" width="38" height="38" fill="none" stroke="#444" stroke-width="2"/>
<rect x="120" y="80" width="38" height="38" fill="none" stroke="#444" stroke-width="2"/>
<rect x="160" y="80" width="38" height="38" fill="none" stroke="#444" stroke-width="2"/>
<rect x="200" y="80" width="38" height="38" fill="none" stroke="#444" stroke-width="2"/>
<rect x="240" y="80" width="38" height="38" fill="none" stroke="#444" stroke-width="2"/>
<rect x="280" y="80" width="38" height="38" fill="none" stroke="#444" stroke-width="2"/>
<rect x="320" y="80" width="38" height="38" fill="none" stroke="#444" stroke-width="2"/>
<rect x="40" y="120" width="38" height="38" fill="none" stroke="#444" stroke-width="2"/>
<rect x="80" y="120" width="38" height="38" fill="none" stroke="#444" stroke-width="2"/>
<rect x="120" y="120" width="38" height="38" fill="none" stroke="#444" stroke-width="2"/>
<rect x="160" y="120" width="38" height="38" fill="none" stroke="#444" stroke-width="2"/>
<rect x="200" y="120" width="38" height="38" fill="none" stroke="#444" stroke-width="2"/>
<rect x="240" y="120" width="38" height="38" fill="none" stroke="#444" stroke-width="2"/>
<rect x="280" y="120" width="38" height="38" fill="none" stroke="#444" stroke-width="2"/>
<rect x="320" y="120" width="38" height="38" fill="none" stroke="#444" stroke-width="2"/>
<rect x="40" y="160" width="38" height="38" fill="none" stroke="#444" stroke-width="2"/>
<rect x="80" y="160" width="38" height="38" fill="none" stroke="#444" stroke-width="2"/>
<rect x="120" y="160" width="38" height="38" fill="none" stroke="#444" stroke-width="2"/>
<rect x="160" y="160" width="38" height="38" fill="none" stroke="#444" stroke-width="2"/>
<rect x="200" y="160" width="38" height="38" fill="none" stroke="#444" stroke-width="2"/>
<rect x="240" y="160" width="38" height="38" fill="none" stroke="#444" stroke-width="2"/>
<rect x="280" y="160" width="38" height="38" fill="none" stroke="#444" stroke-width="2"/>
<rect x="320" y="160" width="38" height="38" fill="none" stroke="#444" stroke-width="2"/>
<rect x="40" y="200" width="38" height="38" fill="none" stroke="#444" stroke-width="2"/>
<rect x="80" y="200" width="38" height="38" fill="none" stroke="#444" stroke-width="2"/>
<rect x="120" y="200" width="38" height="38" fill="none" stroke="#444" stroke-width="2"/>
<rect x="160" y="200" width="38" height="38" fill="none" stroke="#444" stroke-width="2"/>
<rect x="200" y="200" width="38" height="38" fill="none" stroke="#444" stroke-width="2"/>
<rect x="240" y="200" width="38" height="38" fill="none" stroke="#444" stroke-width="2"/>
<rect x="280" y="200" width="38" height="38" fill="none" stroke="#444" stroke-width="2"/>
<rect x="320" y="200" width="38" height="38" fill="none" stroke="#444" stroke-width="2"/>
<rect x="40" y="240" width="38" height="38" fill="none" stroke="#444" stroke-width="2"/>
<rect x="80" y="240" width="38" height="38" fill="none" stroke="#444" stroke-width="2"/>
<rect x="120" y="240" width="38" height="38" fill="none" stroke="#444" stroke-width="2"/>
<rect x="160" y="240" width="38" height="38" fill="none" stroke="#444" stroke-width="2"/>
<rect x="200" y="240" width="38" height="38" fill="none" stroke="#444" stroke-width="2"/>
<rect x="240" y="240" width="38" height="38" fill="none" stroke="#444" stroke-width="2"/>
<rect x="280" y="240" width="38" height="38" fill="none" stroke="#444" stroke-width="2"/>
<rect x="320" y="240" width="38" height="38" fill="none" stroke="#444" stroke-width="2"/>
<rect x="40" y="280" width="38" height="38" fill="none" stroke="#444" stroke-width="2"/>
<rect x="80" y="280" width="38" height="38" fill="none" stroke="#444" stroke-width="2"/>
<rect x="120" y="280" width="38" height="38" fill="none" stroke="#444" stroke-width="2"/>
<rect x="160" y="280" width="38" height="38" fill="none" stroke="#444" stroke-width="2"/>
<rect x="200" y="280" width="38" height="38" fill="none" stroke="#444" stroke-width="2"/>
<rect x="240" y="280" width="38" height="38" fill="none" stroke="#444" stroke-width="2"/>
<rect x="280" y="280" width="38" height="38" fill="none" stroke="#444" stroke-width="2"/>
<rect x="320" y="280" width="38" height="38" fill="none" stroke="#444" stroke-width="2"/>
<rect x="40" y="320" width="38" height="38" fill="none" stroke="#444" stroke-width="2"/>
<rect x="80" y="320" width="38" height="38" fill="none" stroke="#444" stroke-width="2"/>
<rect x="120" y="320" width="38" height="38" fill="none" stroke="#444" stroke-width="2"/>
<rect x="160" y="320" width="38" height="38" fill="none" stroke="#444" stroke-width="2"/>
<rect x="200" y="320" width="38" height="38" fill="none" stroke="#444" stroke-width="2"/>
<rect x="240" y="320" width="38" height="38" fill="none" stroke="#444" stroke-width="2"/>
<rect x="280" y="320" width="38" height="38" fill="none" stroke="#444" stroke-width="2"/>
<rect x="320" y="320" width="38" height="38" fill="none" stroke="#444" stroke-width="2"/>
<rect x="40" y="360" width="38" height="38" fill="none" stroke="#444" stroke-width="2"/>
<rect x="80" y="360" width="38" height="38" fill="none" stroke="#444" stroke-width="2"/>
<rect x="120" y="360" width="38" height="38" fill="none" stroke="#444" stroke-width="2"/>
<rect x="160" y="360" width="38" height="38" fill="none" stroke="#444" stroke-width="2"/>
<rect x="200" y="360" width="38" height="38" fill="none" stroke="#444" stroke-width="2"/>
<rect x="240" y="360" width="38" height="38" fill="none" stroke="#444" stroke-width="2"/>
<rect x="280" y="360" width="38" height="38" fill="none" stroke="#444" stroke-width="2"/>
<rect x="320" y="360" width="38" height="38" fill="none" stroke="#444" stroke-width="2"/>
<polyline points="60.0,100.0 60.0,140.0 100.0,180.0 180.0,220.0 180.0,260.0" fill="none" stroke="#00eaff" stroke-width="10" stroke-linejoin="round" stroke-linecap="round"/>
<text x="620" y="120" font-size="48" font-family="Courier New" fill="#e6e6e6">12.45s</text>
<rect x="580" y="150" width="160" height="20" fill="#161b22" stroke="#7f00ff" stroke-width="2"/>
<rect x="580" y="150" width="120" height="20" fill="#7f00ff"/>
<rect x="0" y="530" width="800" height="70" fill="#161b22"/>
<text x="30" y="555" font-size="20" font-family="Courier New" fill="#e6e6e6">Player drags cyan line in one stroke; timer and combo bar</text>
<text x="30" y="579" font-size="20" font-family="Courier New" fill="#e6e6e6">fill rapidly.</text>
</svg>