<svg xmlns="http://www.w3.org/2000/svg" width="800" height="600" viewBox="0 0 800 600">
<rect width="100%" height="100%" fill="#0d1117"/>
<text x="30" y="50" font-size="34" font-family="Courier New" fill="#00eaff" letter-spacing="2">3  WATCH PHASE</text>
<rect x="40" y="80" width="38" height="38" fill="none" stroke="#444" stroke-width="2"/>
<rect x="80" y="80" width="38" height="38" fill="none" stroke="#444" stroke-width="2"/>
<rect x="120" y="80" width="38" height="38" fill="none" stroke="#444" stroke-width="2"/>
<rect x="160" y="80" width="38" height="38" fill="none" stroke="#444" stroke-width="2"/>
<rect x="200" y="80" width="38" height="38" fill="none" stroke="#444" stroke-width="2"/>
<rect x="240" y="80" width="38" height="38" fill="none" stroke="#444" stroke-width="2"/>
<rect x="280" y="80" width="38" height="38" fill="none" stroke="#444" stroke-width="2"/>
<rect x="320" y="80" width="38" height="38" fill="none" stroke="#444" stroke-width="2"/>
<rect x="40" y="120" width="38" height="38" fill="none" stroke="#444" stroke-width="2"/>
<rect x="80" y="120" width="38" height="38" fill="none" stroke="#444" stroke-width="2"/>
<rect x="120" y="120" width="38" height="38" fill="none" stroke="#444" stroke-width="2"/>
<rect x="160" y="120" width="38" height="38" fill="none" stroke="#444" stroke-width="2"/>
<rect x="200" y="120" width="38" height="38" fill="none" stroke="#444" stroke-width="2"/>
<rect x="240" y="120" width="38" height="38" fill="none" stroke="#444" stroke-width="2"/>
<rect x="280" y="120" width="38" height="38" fill="none" stroke="#444" stroke-width="2"/>
<rect x="320" y="120" width="38" height="38" fill="none" stroke="#444" stroke-width="2"/>
<rect x="40" y="160" width="38" height="38" fill="none" stroke="#444" stroke-width="2"/>
<rect x="80" y="160" width="38" height="38" fill="none" stroke="#444" stroke-width="2"/>
<rect x="120" y="160" width="38" height="38" fill="none" stroke="#444" stroke-width="2"/>
<rect x="160" y="160" width="38" height="38" fill="none" stroke="#444" stroke-width="2"/>
<rect x="200" y="160" width="38" height="38" fill="none" stroke="#444" stroke-width="2"/>
<rect x="240" y="160" width="38" height="38" fill="none" stroke="#444" stroke-width="2"/>
<rect x="280" y="160" width="38" height="38" fill="none" stroke="#444" stroke-width="2"/>
<rect x="320" y="160" width="38" height="38" fill="none" stroke="#444" stroke-width="2"/>
<rect x="40" y="200" width="38" height="38" fill="none" stroke="#444" stroke-width="2"/>
<rect x="80" y="200" width="38" height="38" fill="none" stroke="#444" stroke-width="2"/>
<rect x="120" y="200" width="38" height="38" fill="none" stroke="#444" stroke-width="2"/>
<rect x="160" y="200" width="38" height="38" fill="none" stroke="#444" stroke-width="2"/>
<rect x="200" y="200" width="38" height="38" fill="none" stroke="#444" stroke-width="2"/>
<rect x="240" y="200" width="38" height="38" fill="none" stroke="#444" stroke-width="2"/>
<rect x="280" y="200" width="38" height="38" fill="none" stroke="#444" stroke-width="2"/>
<rect x="320" y="200" width="38" height="38" fill="none" stroke="#444" stroke-width="2"/>
<rect x="40" y="240" width="38" height="38" fill="none" stroke="#444" stroke-width="2"/>
<rect x="80" y="240" width="38" height="38" fill="none" stroke="#444" stroke-width="2"/>
<rect x="120" y="240" width="38" height="38" fill="none" stroke="#444" stroke-width="2"/>
<rect x="160" y="240" width="38" height="38" fill="none" stroke="#444" stroke-width="2"/>
<rect x="200" y="240" width="38" height="38" fill="none" stroke="#444" stroke-width="2"/>
<rect x="240" y="240" width="38" height="38" fill="none" stroke="#444" stroke-width="2"/>
<rect x="280" y="240" width="38" height="38" fill="none" stroke="#444" stroke-width="2"/>
<rect x="320" y="240" width="38" height="38" fill="none" stroke="#444" stroke-width="2"/>
<rect x="40" y="280" width="38" height="38" fill="none" stroke="#444" stroke-width="2"/>
<rect x="80" y="280" width="38" height="38" fill="none" stroke="#444" stroke-width="2"/>
<rect x="120" y="280" width="38" height="38" fill="none" stroke="#444" stroke-width="2"/>
<rect x="160" y="280" width="38" height="38" fill="none" stroke="#444" stroke-width="2"/>
<rect x="200" y="280" width="38" height="38" fill="none" stroke="#444" stroke-width="2"/>
<rect x="240" y="280" width="38" height="38" fill="none" stroke="#444" stroke-width="2"/>
<rect x="280" y="280" width="38" height="38" fill="none" stroke="#444" stroke-width="2"/>
<rect x="320" y="280" width="38" height="38" fill="none" stroke="#444" stroke-width="2"/>
<rect x="40" y="320" width="38" height="38" fill="none" stroke="#444" stroke-width="2"/>
<rect x="80" y="320" width="38" height="38" fill="none" stroke="#444" stroke-width="2"/>
<rect x="120" y="320" width="38" height="38" fill="none" stroke="#444" stroke-width="2"/>
<rect x="160" y="320" width="38" height="38" fill="none" stroke="#444" stroke-width="2"/>
<rect x="200" y="320" width="38" height="38" fill="none" stroke="#444" stroke-width="2"/>
<rect x="240" y="320" width="38" height="38" fill="none" stroke="#444" stroke-width="2"/>
<rect x="280" y="320" width="38" height="38" fill="none" stroke="#444" stroke-width="2"/>
<rect x="320" y="320" width="38" height="38" fill="none" stroke="#444" stroke-width="2"/>
<rect x="40" y="360" width="38" height="38" fill="none" stroke="#444" stroke-width="2"/>
<rect x="80" y="360" width="38" height="38" fill="none" stroke="#444" stroke-width="2"/>
<rect x="120" y="360" width="38" height="38" fill="none" stroke="#444" stroke-width="2"/>
<rect x="160" y="360" width="38" height="38" fill="none" stroke="#444" stroke-width="2"/>
<rect x="200" y="360" width="38" height="38" fill="none" stroke="#444" stroke-width="2"/>
<rect x="240" y="360" width="38" height="38" fill="none" stroke="#444" stroke-width="2"/>
<rect x="280" y="360" width="38" height="38" fill="none" stroke="#444" stroke-width="2"/>
<rect x="320" y="360" width="38" height="38" fill="none" stroke="#444" stroke-width="2"/>
<circle cx="60.0" cy="100.0" r="8" fill="#ff007f"/>
<circle cx="60.0" cy="140.0" r="8" fill="#ff007f"/>
<circle cx="100.0" cy="180.0" r="8" fill="#ff007f"/>
<circle cx="180.0" cy="220.0" r="8" fill="#ff007f"/>
<circle cx="220.0" cy="300.0" r="8" fill="#ff007f"/>
<circle cx="260.0" cy="340.0" r="8" fill="#ff007f"/>
<circle cx="340.0" cy="380.0" r="8" fill="#ff007f"/>
<polyline points="60.0,100.0 60.0,140.0 100.0,180.0 180.0,220.0 220.0,300.0 260.0,340.0 340.0,380.0" fill="none" stroke="#00eaff" stroke-width="10" stroke-linejoin="round" stroke-linecap="round" opacity="0.85"/>
<circle cx="249" cy="218" r="6" fill="#ffd500" opacity="0.45"/>
<circle cx="173" cy="210" r="6" fill="#ffd500" opacity="0.75"/>
<circle cx="293" cy="157" r="6" fill="#ffd500" opacity="0.80"/>
<circle cx="80" cy="160" r="6" fill="#ffd500" opacity="0.68"/>
<circle cx="143" cy="241" r="6" fill="#ffd500" opacity="0.40"/>
<circle cx="343" cy="223" r="6" fill="#ffd500" opacity="0.64"/>
<path d="M660,460 q30,-40 60,0" stroke="#7f00ff" stroke-width="8" fill="none" stroke-linecap="round" opacity="0.5"/>
<rect x="0" y="530" width="800" height="70" fill="#161b22"/>
<text x="30" y="555" font-size="20" font-family="Courier New" fill="#e6e6e6">Long neon path animates on 8×8 grid; moth flashes and wind</text>
<text x="30" y="579" font-size="20" font-family="Courier New" fill="#e6e6e6">sway distract.</text>
</svg>